<svg id="visual" viewBox="0 0 960 300" width="960" height="300" xmlns="http://www.w3.org/2000/svg" xmlns:xlink="http://www.w3.org/1999/xlink" version="1.1"><rect x="0" y="0" width="960" height="300" fill="#202731"></rect><path d="M0 121L22.8 116.2C45.7 111.3 91.3 101.7 137 100.2C182.7 98.7 228.3 105.3 274 107.2C319.7 109 365.3 106 411.2 106.5C457 107 503 111 548.8 106.3C594.7 101.7 640.3 88.3 686 82.7C731.7 77 777.3 79 823 80.8C868.7 82.7 914.3 84.3 937.2 85.2L960 86L960 0L937.2 0C914.3 0 868.7 0 823 0C777.3 0 731.7 0 686 0C640.3 0 594.7 0 548.8 0C503 0 457 0 411.2 0C365.3 0 319.7 0 274 0C228.3 0 182.7 0 137 0C91.3 0 45.7 0 22.8 0L0 0Z" fill="#ff6f61"></path><path d="M0 80L22.8 79.8C45.7 79.7 91.3 79.3 137 76.2C182.7 73 228.3 67 274 66.2C319.7 65.3 365.3 69.7 411.2 69.8C457 70 503 66 548.8 63.3C594.7 60.7 640.3 59.3 686 62C731.7 64.7 777.3 71.3 823 75.7C868.7 80 914.3 82 937.2 83L960 84L960 0L937.2 0C914.3 0 868.7 0 823 0C777.3 0 731.7 0 686 0C640.3 0 594.7 0 548.8 0C503 0 457 0 411.2 0C365.3 0 319.7 0 274 0C228.3 0 182.7 0 137 0C91.3 0 45.7 0 22.8 0L0 0Z" fill="#f76455"></path><path d="M0 56L22.8 56.2C45.7 56.3 91.3 56.7 137 56.5C182.7 56.3 228.3 55.7 274 55.3C319.7 55 365.3 55 411.2 56.5C457 58 503 61 548.8 60.8C594.7 60.7 640.3 57.3 686 54.7C731.7 52 777.3 50 823 53.8C868.7 57.7 914.3 67.3 937.2 72.2L960 77L960 0L937.2 0C914.3 0 868.7 0 823 0C777.3 0 731.7 0 686 0C640.3 0 594.7 0 548.8 0C503 0 457 0 411.2 0C365.3 0 319.7 0 274 0C228.3 0 182.7 0 137 0C91.3 0 45.7 0 22.8 0L0 0Z" fill="#ee5849"></path><path d="M0 41L22.8 41.2C45.7 41.3 91.3 41.7 137 41.5C182.7 41.3 228.3 40.7 274 43.2C319.7 45.7 365.3 51.3 411.2 53.5C457 55.7 503 54.3 548.8 53.3C594.7 52.3 640.3 51.7 686 50.2C731.7 48.7 777.3 46.3 823 46.2C868.7 46 914.3 48 937.2 49L960 50L960 0L937.2 0C914.3 0 868.7 0 823 0C777.3 0 731.7 0 686 0C640.3 0 594.7 0 548.8 0C503 0 457 0 411.2 0C365.3 0 319.7 0 274 0C228.3 0 182.7 0 137 0C91.3 0 45.7 0 22.8 0L0 0Z" fill="#e64c3d"></path><path d="M0 16L22.8 17C45.7 18 91.3 20 137 22.7C182.7 25.3 228.3 28.7 274 29.3C319.7 30 365.3 28 411.2 25C457 22 503 18 548.8 16.7C594.7 15.3 640.3 16.7 686 16.8C731.7 17 777.3 16 823 18.5C868.7 21 914.3 27 937.2 30L960 33L960 0L937.2 0C914.3 0 868.7 0 823 0C777.3 0 731.7 0 686 0C640.3 0 594.7 0 548.8 0C503 0 457 0 411.2 0C365.3 0 319.7 0 274 0C228.3 0 182.7 0 137 0C91.3 0 45.7 0 22.8 0L0 0Z" fill="#dd3f31"></path></svg>